<?xml version="1.0" encoding="UTF-8"?>
<svg  enable-background="new 0 0 307 229" viewBox="0 0 307 229" xmlns="http://www.w3.org/2000/svg">
 <path d="m142.04 214.03s2.866-59.186-5.322-75.972-22.518-38.486-22.928-45.856-1.638-28.25 0-36.848 6.961-29.479 11.874-16.787-3.686 23.747-3.275 25.794-3.686 18.015 7.778 31.935 8.598-9.417 8.598-9.417-5.987-28.66 3.762-30.707 7.703 17.605 6.475 22.928 2.535 26.203 1.063 27.841 1.349 21.291 0.348 23.338 1.865 32.345 5.96 20.062 6.002-17.605 11.598-21.699 13.785-2.867 6.826 11.668-14.74 13.716-17.605 35.825-0.41 44.218-0.41 44.218-12.695 2.095-14.742-6.323z" fill="#fff" stroke="#0893a1"/>
 <path d="m112.75 218.42s2.457-7.755-11.464-27.816-27.021-13.511-29.888-28.251 2.457-16.377 6.142-10.645 6.312 9.417 14.21 11.873 11.993 10.646 7.489-8.188-6.551-20.718-12.282-27.35-34.393-25.057-57.729-27.104-25.793-9.416-23.747-13.511 29.888 0 29.888 0l9.417 0.819s23.746 13.102 4.503-15.558-24.974-37.258-18.014-37.667 11.055-1.638 20.063 12.692 19.652 42.171 19.652 42.171 3.275 10.235 6.142 8.598 0.818-27.841 1.228-29.479-2.047-28.692 1.229-31.337 18.424-29.667 13.511 9.638-3.275 51.587-3.275 51.587 11.055 16.787 15.149 0.819 24.155-26.203 24.155-26.203 6.961-2.457 9.827-9.007 16.377 1.228 8.598 10.235-34.802 25.384-36.029 38.077-5.323 31.936 0.409 33.163 1.638-4.913 11.873-9.826c10.236-4.913 18.834-23.63 22.109-13.861 3.275 9.768-7.37 16.318-7.37 16.318s-11.873 2.456-15.968 14.33c-4.094 11.873-4.503 13.92-3.685 21.29s4.504 15.148 10.235 9.007 13.512-6.141 7.37 4.095-9.826 22.928-9.826 27.432-13.77 8.408-13.922 3.659z" fill="#fff" stroke="#0893a1"/>
 <path d="m207.26 215.85s-3.361-7.407 8.074-28.982 25.223-16.629 26.316-31.604c1.092-14.976-4.389-15.969-7.365-9.839s-5.146 10.101-12.697 13.479-10.641 11.996-8.41-7.239 4.041-21.35 8.943-28.616 31.168-28.97 54.096-33.778 24.49-12.418 21.971-16.24-29.676 3.555-29.676 3.555l-9.252 1.933s-22.02 15.833-6.322-14.912 20.365-39.964 13.406-39.542-11.17-0.312-18.41 14.988-14.496 44.209-14.496 44.209-2.035 10.553-5.076 9.268c-3.039-1.285-4.125-27.546-4.727-29.124s-1.379-28.732-4.945-30.969-21.822-27.265-12.27 11.176 9.389 50.832 9.389 50.832-8.98 17.982-14.943 2.615-27.103-23.144-27.103-23.144-7.203-1.611-10.828-7.775-16.114 3.167-7.318 11.186c8.795 8.018 37.573 21.065 40.302 33.521s9.084 31.075 3.539 32.977c-5.547 1.901-2.211-4.683-12.958-8.344s-21.512-21.223-23.602-11.134 9.258 15.326 9.258 15.326 12.082 1.026 17.56 12.328 6.127 13.287 6.189 20.701c0.064 7.415-2.67 15.577-9.091 10.161s-14.146-4.491-6.83 4.941c7.314 9.433 12.483 21.597 13.019 26.068s14.671 6.711 14.257 1.978z" fill="#fff" stroke="#0893a1"/>
 <path d="m128.92 218.84s3.275-24.975-6.96-28.25-37.667-4.913-36.029-13.102 12.282 0 15.148 0 13.921 0.818 18.015 0.818 10.646-10.235 3.275-24.155-15.558-18.016-18.833-27.432 4.094-3.275-5.732-24.565-17.196-47.903-6.551-41.352 9.417 22.928 9.417 22.928l3.685-1.228s5.342-11.055 3.285-15.149-4.514-19.652-4.514-19.652 2.866-13.92 6.961-6.551c4.094 7.37 2.865 17.605 3.685 21.29 0.818 3.685 2.456 18.015 0.818 20.881s-6.122 6.96-6.95 9.417-0.01 11.873 3.266 20.881c3.275 9.007 13.102-9.417 14.33-9.826s8.188-13.921 10.645-20.881-2.456-24.975-2.456-27.432 1.229-25.384 7.369-11.055 3.275 26.203 3.275 27.432-1.638 21.7-1.638 21.7-3.275 11.874-9.416 19.243-14.33 4.095-6.142 27.022 20.988 29.888 17.863 41.761c-3.124 11.874 3.427 11.874-1.486 18.834s-4.095 16.377-5.322 18.424-9.008-1e-3 -9.008-1e-3z" fill="#fff" stroke="#0893a1"/>
 <path d="m171.184,216.934c0,0-2.504-28.407 7.949-32.632s27.509-22.591 26.116-31.879-5.695-5.385-8.592-5.251-10.093,22.758-14.231,22.949-10.43-11.207-2.531-27.47c7.898-16.265 16.31-21.33 19.925-32.251s-4.033-3.555 6.586-28.361 18.93-55.584 7.957-47.595-10.26,26.66-10.26,26.66l-3.684-1.232c0,0-5.045-12.392-2.832-17.169s5.197-22.685 5.197-22.685-2.449-15.785-6.824-7.166-3.467,20.267-4.414,24.519c-.945,4.252-3.063,20.716-1.5,23.917s5.963,7.673 6.721,10.443-.373,13.578-3.975,24.031-12.94-10.156-14.169-10.567-7.828-15.536-10.086-23.38 3.289-28.675 3.369-31.485-.422-28.971-7.094-12.296c-6.67,16.674-4.156,30.118-4.195,31.522-.041,1.405.953,24.738.953,24.738s2.928,13.425 8.898,21.565 14.354,4.012 5.336,30.614-22.181,35.162-19.406,48.593c2.773,13.432-3.846,13.739.895,21.468s3.609,18.537 4.785,20.82c1.176,2.285 9.106-.42 9.106-.42z" fill="#fff" stroke="#0893a1"/>
</svg>
