<?xml version="1.0" encoding="UTF-8"?>
<svg viewBox="0 0 468 468" xmlns="http://www.w3.org/2000/svg">
 <g stroke="#000">
  <path d="m299.97 160.24c15.566-46.699-20.61-107.77-31.133-108.96l-31.133 31.133-31.133-31.133c-8.5199 6.2624-46.699 62.266-31.133 112.05-39.603-26.153-108.86-15.441-113.25-5.803 9.9943 19.615 9.9943 19.615 19.988 39.23l-39.23 19.989c3.3231 10.038 45.91 62.119 95.134 67.972-40.043 34.857-47.794 96.407-39.984 103.56l43.486-6.8876 6.8877 43.486c10.574-0.058502 71.795-33.432 89.235-71.668 17.44 55.625 80.018 76.266 89.235 71.049 3.4438-21.743 3.4438-21.743 6.8878-43.486 21.743 3.4437 21.743 3.4437 43.201 6.2806 2.9262-10.681 2.1693-75.929-31.647-111.91 55.451-6.9756 89.196-49.087 87.083-59.465l-39.23-19.989 19.989-39.23c-8.5888-6.1678-73.65-25.172-113.25 4.0629" stroke-width="2.929"/>
  <path d="m289.6 174.22c12.972-38.916-17.175-89.806-25.944-90.804l-25.944 25.944-25.944-25.944c-7.1 5.2187-38.916 51.888-25.944 93.373-33.003-21.794-90.718-12.868-94.377-4.8358l16.657 32.691c-16.346 8.3286-16.346 8.3286-32.691 16.657 2.7693 8.3651 38.259 51.766 79.279 56.643-33.369 29.048-39.828 80.339-33.32 86.301 18.119-2.8699 18.119-2.8699 36.239-5.7397 2.8699 18.12 2.8699 18.12 5.7398 36.239 8.8114-0.048798 59.829-27.86 74.363-59.723 14.534 46.354 66.682 63.555 74.363 59.207l5.7398-36.239c18.119 2.8698 18.119 2.8698 36.001 5.2338 2.4385-8.9011 1.8078-63.274-26.372-93.257 46.209-5.813 74.33-40.906 72.569-49.554-16.346-8.3287-16.346-8.3287-32.691-16.657l16.657-32.692c-7.1573-5.1399-61.375-20.977-94.377 3.3857" stroke-width="1.464"/>
 </g>
 <g fill="#000">
  <path d="m325.86 265.2l-84.089-15.893-4.4454 83.045-4.2159-82.782-77.572 26.008 74.635-33.821-44.793-69.955 51.639 64.864 52.825-64.864-45.657 69.53 81.674 23.869z"/>
  <path d="m179.57 232.48l54.354 10.273 2.8734-53.678 2.7251 53.509 50.141-16.811-48.242 21.861 28.953 45.217-33.378-41.926-34.145 41.926 29.511-44.943-52.792-15.428z"/>
  <path d="m244.72 186.57a7.913 7.9129 0 1 1 -15.826 0 7.913 7.9129 0 1 1 15.826 0z" fill="#fff" stroke-width="1.25"/>
 </g>
</svg>
