<?xml version="1.0" encoding="UTF-8" standalone="no"?>
<svg xmlns="http://www.w3.org/2000/svg" viewBox="0 0 512 512">
    <title>unicorn</title>
    <g id="unicorn">
        <path d="M365.23,332.57a28.28,28.28,0,0,0-.71-7.34c-7.76-31.82-41.35-62.29-120.27-76.56C190.07,238.87,166,218,156,205a32.2,32.2,0,0,1-6.63-19.78h0A32.61,32.61,0,0,1,165.52,157c23.66-13.72,48.36-30.43,61.72-39.71a22.72,22.72,0,0,0,10-16.52A21.79,21.79,0,0,0,215.5,77.13H131.92l-8.63-23.25a4.94,4.94,0,0,0-8.37-1.49C98.89,71,95.35,97.16,95.35,97.16S53.56,136.34,45.72,244.31c-7.2,99.22,66.61,113,72.7,114-1.18,24-1.89,100,32.63,145.22A7.45,7.45,0,0,0,157,506.4h20.37a7.49,7.49,0,0,0,6.35-11.48c-7.66-12.31-18-34.48-19.55-66.32-2.18-44.16,12-53.27,26-60.22,31.14,5,59.34,10,59.34,10,15.68,3.66,37,7,51.56,9.1a21,21,0,0,1,17.9,18.56c4,38.54,10.58,79.29,13.11,94.33a7.2,7.2,0,0,0,7.13,6h12.59a7.2,7.2,0,0,0,7.19-8c-5.93-48.62,1.11-102.56,1.11-102.56A545.67,545.67,0,0,0,365.23,332.57Z" style="fill:#e6f0ff"/>
        <path d="M97.87,85.86s-54.82,17.62-64.38,75.62c0,0-6.37,46.53,21.67,61.83L103.61,96.47Z" style="fill:#ffd9be"/>
        <path d="M97.87,85.86a93.1,93.1,0,0,0-16.54,7.86c3.35,52.3-22.9,82.68-48.2,86.35,1,14.75,5.66,34.31,22,43.24L103.61,96.47Z" style="fill:#ffbf76"/>
        <path d="M145.6,413c-4.6-28.57-10.42-55.43-17.13-66.63l-38.89-8.92s22.65,76.81,20.83,157.46a11.3,11.3,0,0,0,11.31,11.53h13.1a7.75,7.75,0,0,0,7.78-7.46C143.24,481.55,144.43,447.26,145.6,413Z" style="fill:#819fea"/>
        <path d="M259.77,375.66s22.18,52.88,19.46,124a6.43,6.43,0,0,0,6.4,6.72h14.28a6.4,6.4,0,0,0,6.41-6.35c.16-19.63,1.52-79.92,12.1-111.65Z" style="fill:#819fea"/>
        <path d="M326.7,287.05s20.4-21.67,48.45-21.67h.08a48.74,48.74,0,0,1,48.64,45.73l3.38,54.78A13.81,13.81,0,0,0,441,378.84h0a13.79,13.79,0,0,0,13.51-11l.06-.28a11.76,11.76,0,0,1,12.68-9.33h0A11.74,11.74,0,0,1,477.71,368c3.3,20.44,5.41,68.81-48.38,68.81,0,0-63.74.64-70.12-85.74Z" style="fill:#ffd9be"/>
        <path d="M145,162.84a1.92,1.92,0,0,1,3.71,0c2.2,9.23,9.28,20.78,27.53,26.65,36.5,11.73,72,20.4,71.39,66.93C247.66,256.46,121.59,250.67,145,162.84Z" style="fill:#ffbf76"/>
        <path d="M123.29,73.52l66.55-67a2.91,2.91,0,0,1,4.77,3.12L165.44,83.08h-51Z" style="fill:#c7daff"/>
        <polygon points="176.83 54.38 181.36 42.99 171.15 25.31 164.13 32.38 176.83 54.38" style="fill:#819fea"/>
        <polygon points="156.3 83.08 165.44 83.08 166.24 81.06 147.69 48.94 140.67 56.01 156.3 83.08" style="fill:#819fea"/>
        <circle cx="152.05" cy="102.84" r="7.01" style="fill:#819fea"/>
        <path d="M212.79,372.11h0c21,3.51,36.68,6.29,36.68,6.29,15.68,3.66,37,7,51.56,9.1a21,21,0,0,1,17.9,18.56c4,38.54,10.58,79.29,13.11,94.33a7.2,7.2,0,0,0,7.13,6h12.59a7.2,7.2,0,0,0,7.19-8c-5.93-48.62,1.11-102.56,1.11-102.56a545.67,545.67,0,0,0,5.17-63.25,28.28,28.28,0,0,0-.71-7.34c-3.89-15.94-14.25-31.54-33.55-44.93C332.34,315.76,318.19,369,212.79,372.11Z" style="fill:#c7daff"/>
        <path d="M190.13,368.38s-30.74-6.57-38.08,29.17c0,0-9.61,60,19,95.76,0,0,4.36,6.71.14,13.09h6.13a7.49,7.49,0,0,0,6.35-11.48c-7.66-12.31-18-34.48-19.55-66.32C162,384.44,176.12,375.33,190.13,368.38Z" style="fill:#c7daff"/>
        <path d="M477.71,368a11.84,11.84,0,0,0-16.2-9,11.09,11.09,0,0,0-6.84,8.21h0c-1.2,5.8-5.72,10.61-11.59,11.46a13.8,13.8,0,0,1-15.83-12.8l-3.38-54.78a48.5,48.5,0,0,0-6-20.48c2.39,17.8,2.57,51.08-24.08,70.47A23,23,0,0,0,384,380.35c.47,13,4.7,33.17,23.18,51.45a62.81,62.81,0,0,0,22.2,5.05C483.12,436.85,481,388.48,477.71,368Z" style="fill:#ffbf76"/>
        <path d="M122.32,80.82l-3.49-12.19a2.43,2.43,0,0,0-4.45-.55,57.89,57.89,0,0,0-7.16,23.56Z" style="fill:#819fea"/>
    </g>
</svg>