<?xml version="1.0" encoding="UTF-8" standalone="no"?> <svg id="Layer_1" enable-background="new 0 0 512.002 512.002" height="512" viewBox="0 0 512.002 512.002" width="512" xmlns="http://www.w3.org/2000/svg"><g><g><g><path d="m501.119 195.095c-33.227-18.615-73.805 9.121-59.426 57.129 21.725 72.534-33.464 94.865-66.636 81.678-23.221-9.232-35.541-28.544-39.069-53.434l28.861-.148c12.841 0 23.251-10.432 23.251-23.3-.04-12.839-10.712-23.397-23.517-23.3 14.9-31.612 23.648-65.961 23.648-94.075 0-72.981-58.895-132.144-131.545-132.144h-.459-.459-.459c-72.65 0-131.545 59.163-131.545 132.144 0 28.114 8.748 62.462 23.648 94.075-12.806-.096-23.477 10.461-23.517 23.3 0 12.868 10.41 23.3 23.251 23.3l28.861.148c-3.528 24.891-15.847 44.202-39.069 53.434-33.172 13.188-88.362-9.143-66.636-81.678 14.379-48.008-26.198-75.744-59.426-57.129 0 0 40.256 1.926 27.476 37.872-7.44 20.927-15.2 38.303-17.755 56.759l3.012 38.231c.475 1.606.998 3.235 1.57 4.887 2.899 8.365 7.004 16.28 12.086 23.465l22.398 8.358 11.178 20.755c8.265 4.124 17.195 6.881 26.515 7.936 46.288 5.241 82.638-24.517 94.445-35.642h.698c3.235 32.781-19.22 80.428-83.826 72.226-54.288-6.892-76.837 41.986-50.801 74.559 0 0-5.185-43.877 35.826-36.539 7.899 1.413 15.387 2.935 22.606 4.317l22.942-7.278 19.682 11.896c9.85-.358 19.766-2.106 30.202-6.015l42.58-29.333c14.047-16.112 23.011-36.432 24.056-57.692 1.046 21.26 10.009 41.58 24.056 57.692l42.332 29.24c10.527 3.975 20.522 5.747 30.45 6.108l42.625-4.618c7.219-1.383 14.706-2.904 22.606-4.317 41.011-7.337 35.826 36.539 35.826 36.539 26.036-32.573 3.486-81.451-50.801-74.559-64.606 8.202-87.061-39.445-83.826-72.226h1.157c11.808 11.126 48.158 40.884 94.445 35.642 9.075-1.028 17.781-3.669 25.863-7.614l12.663-19.744 21.368-9.414c5.173-7.259 9.346-15.27 12.283-23.743.572-1.651 1.095-3.279 1.569-4.884l-3.22-19.203 6.243-18.957c-2.544-18.484-10.315-35.878-17.765-56.834-12.777-35.944 27.479-37.87 27.479-37.87z" fill="#ffa200"/><g fill="#fa9511"><path d="m14.027 195.437c9.225 1.351 34.888 7.821 24.326 37.53-3.654 10.277-7.382 19.696-10.535 28.808-14.279 64.931 37.452 84.717 69.121 72.127.144-.057.282-.12.426-.178-23.266-9.076-41.005-34.948-27.062-81.5 14.183-47.353-25.102-74.98-58.062-57.861.605.341 1.199.702 1.786 1.074z"/><path d="m84.061 430.86c5.622-.066 10.857-.606 15.719-1.556-5.655-.091-10.903.459-15.719 1.556z"/><path d="m348.231 139.645c0 28.114-8.748 62.462-23.648 94.075 12.806-.096 23.477 10.461 23.517 23.3 0 12.868-10.41 23.3-23.251 23.3l-28.861.148c3.528 24.891 15.847 44.202 39.069 53.434 11.882 4.724 26.589 4.888 39.574-.178-22.943-9.299-35.137-28.52-38.643-53.257l28.861-.148c12.841 0 23.251-10.432 23.251-23.3-.04-12.839-10.712-23.396-23.517-23.3 14.9-31.612 23.648-65.961 23.648-94.075 0-72.981-58.895-132.144-131.545-132.144h-.459-.459-.459c-6.561 0-13.008.49-19.311 1.421 63.494 9.385 112.233 64.333 112.233 130.724z"/><path d="m501.119 195.095c-14.043-7.867-29.398-7.454-41.363-.732.456.237.91.478 1.363.732 0 0-1.214.058-3.151.342-15.273 9.677-24.269 30.096-16.275 56.787.985 3.287 1.807 6.469 2.484 9.551 7.877 22.761 12.156 43.602 2.637 71.069-9.972 28.774-34.208 52.206-63.425 58.997 9.72 2.009 20.197 2.768 31.249 1.517 9.075-1.028 17.781-3.669 25.863-7.614l13.997-18.744 20.034-10.414c5.173-7.259 9.346-15.27 12.283-23.743.572-1.651 1.095-3.279 1.569-4.884l-2.553-20.46 5.576-17.7c-2.545-18.484-10.315-35.878-17.765-56.834-12.779-35.944 27.477-37.87 27.477-37.87z"/><path d="m402.862 429.942c-5.425.689-10.546.975-15.386.918 20.713 4.72 33.451 19.5 36.356 36.368 34.488-2.174 29.832 37.273 29.832 37.273 26.035-32.573 3.485-81.451-50.802-74.559z"/></g><g fill="#ffcb69"><path d="m229.046 28.192c0-6.096-.986-11.959-2.783-17.453-36.415 8.245-67.111 31.657-85.159 63.288 9.079 6.391 20.132 10.154 32.07 10.154 30.857.001 55.872-25.066 55.872-55.989z"/><path d="m334.198 145.388c0 21.031 17.013 38.08 38 38.08 3.685 0 7.243-.536 10.612-1.516 3.513-14.846 5.421-29.252 5.421-42.307 0-10.388-1.197-20.494-3.453-30.191-3.938-1.385-8.169-2.146-12.58-2.146-20.987 0-38 17.049-38 38.08z"/><ellipse cx="265.561" cy="70.272" rx="19.163" ry="19.203"/><ellipse cx="182.273" cy="150.257" rx="19.163" ry="19.203"/></g><g fill="#f2f2ff"><g><path d="m42.228 306.801c-.888-8.987-8.142-16.256-17.11-17.147-1.542-.153-3.051-.121-4.509.074-1.645 11.88-1.126 24.214 3.016 38.225 11.01-.262 19.722-9.826 18.603-21.152z"/><path d="m75.634 369.197c-1.029-10.419-9.439-18.847-19.836-19.878-7.316-.726-13.993 2.113-18.521 6.984 8.706 12.309 20.27 22.485 33.566 29.119 3.502-4.359 5.4-10.068 4.791-16.225z"/><path d="m491.397 289.802c-1.603-.255-3.27-.318-4.979-.148-8.968.89-16.222 8.159-17.11 17.147-1.135 11.483 7.836 21.153 19.062 21.156 4.134-13.984 4.66-26.297 3.027-38.155z"/><path d="m455.738 349.318c-10.397 1.032-18.807 9.459-19.836 19.878-.616 6.233 1.339 12.004 4.925 16.382 13.332-6.58 24.941-16.715 33.695-28.999-4.53-5.043-11.328-8.001-18.784-7.261z"/></g><g><path d="m374.178 455.339c-11.893 0-21.535 9.644-21.571 21.553 13.914.506 27.699-1.756 42.625-4.615-2.138-9.687-10.745-16.938-21.054-16.938z"/><path d="m301.714 429.429c-9.217 0-17.302 4.837-21.881 12.112 7.917 9.081 17.441 16.833 28.081 22.655 4.965 2.717 9.781 4.917 14.492 6.681 3.242-4.329 5.164-9.708 5.164-15.538 0-14.31-11.576-25.91-25.856-25.91z"/><path d="m137.359 455.339c-10.309 0-18.917 7.251-21.053 16.938 14.926 2.858 28.71 5.121 42.625 4.615-.037-11.909-9.68-21.553-21.572-21.553z"/><path d="m209.823 429.429c-14.28 0-25.856 11.6-25.856 25.91 0 5.829 1.922 11.209 5.164 15.538 4.711-1.765 9.527-3.964 14.492-6.681 10.64-5.822 20.163-13.574 28.081-22.655-4.579-7.276-12.664-12.112-21.881-12.112z"/></g></g></g></g><g><path d="m504.784 188.552c-44.206-23.699-86.313 18.072-70.275 65.824 8.428 28.142 5.103 50.942-9.366 64.198-28.618 25.152-72.607 6.267-80.094-30.653 0 0 19.799-.102 19.799-.102 34.457-.729 42.303-47.085 10.489-59.717 13.021-30.288 20.393-62.065 20.393-88.458 0-75.729-63.118-139.644-139.044-139.644-24.111-.073-48.127 5.879-69.18 17.712-8.454 4.751-1.104 17.83 7.349 13.076 8.219-4.619 16.945-8.257 25.973-10.875 7.055 38.728-34.47 69.617-69.401 51.587 4.084-6.269 8.75-12.209 13.981-17.736 6.666-7.043-4.229-17.354-10.895-10.311-48.613 51.153-45.965 120.347-17.856 184.65-31.8 12.645-23.974 58.97 10.451 59.717 0 0 19.837.102 19.837.102-17.717 68.401-116.91 51.16-89.458-33.545 16.052-47.737-26.102-89.537-70.277-65.824-6.418 3.595-4.036 13.633 3.283 14.033 27.557 1.505 22.826 22.651 15.785 41.506-11.074 29.66-20.637 55.275-8.184 91.209 25.376 73.223 110.145 81.079 166.433 38.36-5.17 34.845-36.349 54.636-74.909 48.841-28.229-3.581-51.983 6.578-63.544 27.181-10.429 18.584-8.098 41.94 5.94 59.501 4.816 6.026 14.148 1.557 13.307-5.563-3.574-30.204 20.511-29.642 42.655-25.318 59.424 11.605 121.506 1.654 147.792-61.514 15.6 37.49 55.293 67.832 96.871 67.602 16.823.562 33.242-2.636 50.92-6.089 22.437-4.381 46.032-4.839 42.655 25.318-.866 7.325 8.701 11.323 13.307 5.563 33.059-42.903-3.814-95.319-57.605-86.681-9.618 1.221-7.732 16.107 1.89 14.88 29.905-4.207 54.904 12.634 53.067 40.514-7.236-15.053-21.64-20.712-40.357-17.318-5.718 1.023-11.13 2.084-16.476 3.128-12.089-23.4-46.477-19.954-53.779 5.155-4.322-.469-8.67-1.259-13.083-2.437 11.087-32.038-27.194-58.362-53.034-36.572-9.968-13.782-16.078-29.965-16.885-46.364-.196-3.994-3.492-7.132-7.491-7.132s-7.294 3.138-7.491 7.131c-.807 16.399-6.917 32.582-16.885 46.365-25.86-21.797-64.119 4.551-53.034 36.572-4.414 1.178-8.761 1.967-13.083 2.437-7.31-25.124-41.7-28.543-53.779-5.155-20.547-4.009-45.808-9.081-56.833 14.191-1.822-27.897 23.149-44.705 53.067-40.514 36.779 4.667 58.584-8.043 70.396-19.53 18.733-18.217 23.563-43.39 21.838-60.874-.626-6.341-8.827-8.941-13.305-4.722-11.851 12.854-61.977 46.943-105.262 29.554 9.479-25.791-18.182-49.624-42.22-36.401-2.22-3.82-4.169-7.829-5.795-12.005 23.592-10.347 20.948-43.965-3.957-50.534 2.363-10.635 6.369-21.381 10.906-33.534 6.447-17.268 14.747-38.117-2.781-52.238 25.484 3.818 31.927 31.74 25.567 52.972-5.89 19.664-11.955 56.147 13.601 79.562 16.516 15.133 41.831 19.649 62.991 11.237 24.481-9.732 39.6-30.256 43.724-59.352.129-5.089-2.333-7.94-7.387-8.552l-28.9-.148c-8.686 0-15.751-7.088-15.751-15.777.027-8.538 7.358-15.968 15.96-15.823 6.22-1.047 8.5-4.613 6.841-10.698-22.63-50.669-32.924-98.523-10.189-145.974 46.104 24.481 101.431-16.661 91.464-67.941 60.4-10.592 120.665 26.928 138.778 83.25-25.5-1.14-47.552 20.003-47.552 45.531 0 24.913 21.101 45.861 46.02 45.571-3.772 13.157-8.787 26.553-14.918 39.563-2.099 4.455 1.895 10.824 6.841 10.697 20.937.938 21.285 30.65.17 31.601 0 0-28.861.148-28.861.148-5.054.613-7.516 3.464-7.387 8.553 4.124 29.095 19.243 49.619 43.724 59.351 21.159 8.411 46.473 3.896 62.991-11.237 25.555-23.415 19.49-59.898 13.601-79.562-6.37-21.266.094-49.157 25.567-52.973-17.525 14.126-9.229 34.966-2.781 52.238 4.523 12.115 8.519 22.833 10.885 33.436-25.44 6.331-28.141 40.61-4 50.791-1.64 4.185-3.6 8.204-5.837 12.03-24.116-13.66-52.225 10.371-42.514 36.37-36.519 13.496-77.981-4.379-104.861-29.708-4.507-4.246-13.126-1.745-13.764 4.722-2.75 27.858 10.911 63.717 47.4 76.616 8.802 3.109 14.087-10.929 4.999-14.143-22.744-8.04-34.267-27.469-37.064-46.219 100.815 73.651 212.03-16.942 158.807-129.143-7.083-18.973-11.437-40.017 15.762-41.505 7.36-.348 9.736-10.43 3.307-14.031zm-130.607 274.287c3.677 0 7.11 1.468 9.664 3.891-7.351 1.25-14.44 2.195-21.447 2.542 2.516-3.866 6.857-6.433 11.783-6.433zm-72.464-25.911c12.387-.227 21.579 12.827 17.347 24.439-10.774-4.762-20.987-11.739-29.203-20.08 3.266-2.784 7.431-4.359 11.856-4.359zm-110.247 18.411c-.209-15.449 18.653-24.182 30.213-14.052-8.412 8.465-18.331 15.188-29.203 20.08-.662-1.917-1.01-3.944-1.01-6.028zm-54.108 7.5c4.927 0 9.268 2.567 11.783 6.433-7.007-.347-14.095-1.291-21.447-2.542 2.555-2.423 5.988-3.891 9.664-3.891zm-82.301-106.057c8.664.745 15.077 9.897 12.727 18.295-7.372-4.587-14.103-10.425-19.858-17.24 2.214-.917 4.644-1.303 7.131-1.055zm-24.69-57.111c6.562 4.789 5.44 15.277-1.343 19.208-1.587-7.388-2.069-14.279-1.717-20.979 1.085.431 2.119 1.025 3.06 1.771zm341.831-123.703c-16.818 0-30.5-13.718-30.5-30.58 0-19.061 18.012-33.797 36.683-29.92 3.944 20.192 2.642 38.959-1.824 60.183-1.444.209-2.9.317-4.359.317zm104.574 131.57c.427-4.322 3.862-8.368 7.908-9.791.371 6.815-.115 13.824-1.753 21.352-4.032-2.145-6.604-7.023-6.155-11.561zm-32.96 67.781c-3.403-11.661 9.147-22.493 20.138-17.339-5.831 6.877-12.662 12.747-20.138 17.339z"/><path d="m150.522 249.172c-9.904.302-9.92 14.693 0 15h35.075c9.904-.302 9.92-14.693 0-15z"/><path d="m326.399 264.172h35.075c9.904-.302 9.92-14.693 0-15h-35.075c-9.904.302-9.92 14.692 0 15z"/><path d="m238.898 70.272c0 14.724 11.961 26.703 26.663 26.703 35.323-1.342 35.313-52.07 0-53.406-14.702 0-26.663 11.979-26.663 26.703zm38.326 0c0 6.453-5.232 11.703-11.663 11.703-15.451-.588-15.447-22.821 0-23.406 6.431 0 11.663 5.25 11.663 11.703z"/><path d="m208.935 150.257c0-14.724-11.961-26.703-26.663-26.703-35.324 1.342-35.314 52.069 0 53.406 14.702 0 26.663-11.979 26.663-26.703zm-26.662 11.703c-6.431 0-11.663-5.25-11.663-11.703.587-15.504 22.741-15.5 23.326 0-.001 6.453-5.233 11.703-11.663 11.703z"/></g></g></svg>