<svg id="a"
    xmlns="http://www.w3.org/2000/svg" viewBox="0 0 64 64">
    <g>
        <path d="M62.74,59.59c-.22-.24-5.43-5.89-15.33-1.8-3.29,1.36-5.51,.28-9.56-1.66-2.77-1.33-6.21-2.99-11.12-4.32-3.13-.85-6.27-.89-9.23-.48l8.12-22.05,4.32,1.59,.8-2.02c2.15-5.83,1.84-10.3-.91-13.29-4.16,.5-7.68,3.9-9.71,9.4l-.8,2,4.43,1.63-8.53,23.15c-7.58,1.66-13.46,5.91-13.82,6.17-.45,.33-.54,.95-.22,1.4,.33,.45,.95,.54,1.4,.22,.12-.09,12.28-8.85,23.62-5.78,4.73,1.28,8.08,2.89,10.77,4.19,4.11,1.98,7.08,3.41,11.19,1.71,8.54-3.53,12.9,1.09,13.07,1.28,.2,.22,.47,.33,.75,.33,.24,0,.48-.08,.67-.25,.41-.37,.45-1,.08-1.41Z" id="id_110" style="fill: rgb(219, 172, 79);"></path>
        <path d="M32.61,29.57l-.79,2,6.04,2.23c.11,.04,.23,.06,.35,.06,.14,0,.29-.03,.42-.09,.24-.11,.43-.31,.52-.56,1.38-3.74,1.16-8-.59-11.7-1.51-3.17-4.05-5.7-7.09-7.11,3.11,3.54,3.51,8.76,1.15,15.17Z" id="id_111"></path>
        <path d="M11.51,24.09l5.93,2.19,.81-2.02c2.24-6.09,6.24-9.92,11.04-10.63-7.69-2.16-15.64,1.73-18.38,9.18-.09,.25-.08,.52,.03,.76,.11,.24,.31,.43,.56,.52Z" id="id_112"></path>
    </g>
</svg>