<?xml version="1.0" standalone="no"?>
<svg xmlns="http://www.w3.org/2000/svg" viewBox="0 0 1440 320">
<path fill="#0099ff" fill-opacity="1" d="M0,160L40,138.7C80,117,160,75,240,96C320,117,400,203,480,229.3C560,256,640,224,720,192C800,160,880,128,960,122.7C1040,117,1120,139,1200,138.7C1280,139,1360,117,1400,106.7L1440,96L1440,320L1400,320C1360,320,1280,320,1200,320C1120,320,1040,320,960,320C880,320,800,320,720,320C640,320,560,320,480,320C400,320,320,320,240,320C160,320,80,320,40,320L0,320Z"></path>
</svg>