<?xml version="1.0" standalone="no"?>
<svg xmlns="http://www.w3.org/2000/svg" viewBox="0 0 1440 320">
<path fill-opacity="1" d="M0,64L30,58.7C60,53,120,43,180,53.3C240,64,300,96,360,112C420,128,480,128,540,117.3C600,107,660,85,720,80C780,75,840,85,900,117.3C960,149,1020,203,1080,192C1140,181,1200,107,1260,80C1320,53,1380,75,1410,85.3L1440,96L1440,320L1410,320C1380,320,1320,320,1260,320C1200,320,1140,320,1080,320C1020,320,960,320,900,320C840,320,780,320,720,320C660,320,600,320,540,320C480,320,420,320,360,320C300,320,240,320,180,320C120,320,60,320,30,320L0,320Z"></path>
</svg>