<?xml version="1.0" standalone="no"?>
<svg xmlns="http://www.w3.org/2000/svg" viewBox="0 0 1440 320">
<path fill="#0099ff" fill-opacity="1" d="M0,32L26.7,80C53.3,128,107,224,160,229.3C213.3,235,267,149,320,133.3C373.3,117,427,171,480,160C533.3,149,587,75,640,64C693.3,53,747,107,800,112C853.3,117,907,75,960,90.7C1013.3,107,1067,181,1120,197.3C1173.3,213,1227,171,1280,144C1333.3,117,1387,107,1413,101.3L1440,96L1440,320L1413.3,320C1386.7,320,1333,320,1280,320C1226.7,320,1173,320,1120,320C1066.7,320,1013,320,960,320C906.7,320,853,320,800,320C746.7,320,693,320,640,320C586.7,320,533,320,480,320C426.7,320,373,320,320,320C266.7,320,213,320,160,320C106.7,320,53,320,27,320L0,320Z"></path>
</svg>